<svg width="510" height="511" viewBox="0 0 510 511" fill="none" xmlns="http://www.w3.org/2000/svg">
<path fill-rule="evenodd" clip-rule="evenodd" d="M509.955 243.694C504.454 241.942 500.088 237.255 499.379 231.113C498.276 221.556 494.443 212.488 488.309 204.925C480.548 195.354 478.757 182.463 483.63 171.24L485.724 166.418C487.739 161.775 485.484 156.434 480.687 154.489C475.889 152.543 470.366 154.73 468.35 159.372L466.257 164.194C458.735 181.517 461.499 201.413 473.479 216.185C477.453 221.085 479.936 226.96 480.651 233.152C482.284 247.297 473.836 260.734 460.098 265.846L453.187 268.417C442.338 272.453 430.071 268.284 424.225 258.575C422.088 255.025 420.25 251.315 418.728 247.479L415.221 238.639C408.255 221.085 410.486 201.35 421.209 185.651C429.748 173.151 434.306 158.504 434.319 143.528L434.344 112.97C434.348 107.936 430.133 103.856 424.929 103.857C419.725 103.857 415.504 107.939 415.499 112.972L415.474 143.53C415.464 154.936 411.993 166.091 405.49 175.612C391.41 196.224 388.481 222.137 397.627 245.185L401.134 254.025C403.018 258.773 405.293 263.366 407.939 267.759C412.45 275.252 408.946 284.876 400.575 287.991L394.26 290.341C383.565 294.32 371.675 288.442 368.751 277.73C366.447 269.291 362.288 261.434 356.556 254.696L353.935 251.615C345.472 241.665 333.399 235.218 320.181 233.59C311.594 232.532 302.868 233.552 294.785 236.56L270.573 245.568C265.715 247.375 263.287 252.649 265.151 257.347C267.016 262.046 272.465 264.389 277.324 262.581L301.536 253.573C306.707 251.649 312.29 250.996 317.784 251.673C326.24 252.715 333.964 256.839 339.379 263.205L342 266.286C346.009 271 348.919 276.496 350.53 282.4C353.944 294.904 347.07 307.898 334.585 312.543L313.012 320.569C304.135 323.872 296.402 329.534 290.705 336.902C282.153 347.963 278.843 362.007 281.597 375.551L291.136 422.462C293.209 432.657 291.289 443.236 285.75 452.146C278.178 464.326 264.742 471.968 250.063 472.445L236.228 472.895C218.061 473.485 200.399 467.093 187.104 455.115L143.034 425.411C139.228 421.982 133.266 422.19 129.717 425.875C126.169 429.56 126.378 435.327 130.184 438.756L174.254 468.46C191.193 483.721 213.697 491.866 236.843 491.114L250.678 490.664C271.746 489.979 291.029 479.011 301.897 461.53C309.846 448.743 312.601 433.56 309.626 418.928L300.088 372.017C298.363 363.535 300.436 354.739 305.792 347.812C309.36 343.197 314.203 339.651 319.762 337.583L384.368 313.546C389.227 311.738 394.677 314.081 396.541 318.779C398.405 323.478 395.978 328.751 391.119 330.559L356.365 343.49C348.155 346.544 340.955 351.699 335.536 358.403C325.033 371.395 322.342 388.76 328.447 404.146L339.887 432.979C344.326 444.166 343.266 456.703 337.005 467.052C334.375 471.399 335.884 476.981 340.375 479.52C344.866 482.059 350.638 480.595 353.267 476.248C362.42 461.117 363.971 442.788 357.481 426.433L346.041 397.6C342.307 388.19 343.953 377.57 350.376 369.624C353.691 365.524 358.094 362.371 363.115 360.503C370.454 357.773 378.724 360.954 382.114 367.81L385.657 374.979C394.277 392.413 396.251 412.238 391.231 430.955L387.652 444.3C386.345 449.174 389.369 454.146 394.406 455.406C399.443 456.666 404.586 453.736 405.893 448.862L409.472 435.517C415.607 412.64 413.194 388.41 402.659 367.101C397.863 357.4 402.643 345.797 413.025 341.934L419.679 339.458C432.898 334.54 447.726 340.915 452.798 353.698L469.067 394.702C423.561 464.561 344.736 510.749 255.118 510.749C114.22 510.749 0 396.582 0 255.749C0 226.459 4.94067 198.322 14.0344 172.125L71.9176 150.59C78.4484 148.16 85.774 151.31 88.2798 157.625C90.8683 164.149 87.297 171.447 80.4376 173.651L48.7911 183.821C13.4508 195.177 2.3134 238.236 27.9735 264.305L30.3801 266.75C40.4216 276.952 40.7345 292.891 31.1009 303.472C14.88 321.287 15.5577 348.166 32.6563 365.165L49.3779 381.79C54.4775 386.86 58.4584 392.88 61.0793 399.485L62.8273 403.89C64.6915 408.588 70.1412 410.932 74.9997 409.124C79.8581 407.317 82.2855 402.043 80.4213 397.344L78.6732 392.939C75.1382 384.03 69.7686 375.91 62.8902 369.071L46.1685 352.447C35.9323 342.27 35.5266 326.179 45.2374 315.513C61.3293 297.84 60.8067 271.214 44.0335 254.174L41.6268 251.729C25.4917 235.336 32.4949 208.261 54.717 201.12C69.2733 196.442 84.3572 209.947 86.3936 224.647C89.3636 246.087 100.683 266.296 119.261 280.488C123.343 283.606 129.269 282.931 132.496 278.979C135.724 275.028 135.031 269.296 130.949 266.178C104.951 246.317 98.8128 225.517 102.813 194.252L103.038 193.448C104.357 188.726 107.656 184.752 112.137 182.486C116.116 181.005 120.513 183.334 121.364 187.372L131.017 233.139C131.515 235.5 132.171 237.84 133.243 240.015C143.717 261.263 169.51 271.455 192.627 262.855L212.86 255.327C237.152 246.289 249.289 219.92 239.968 196.429L231.867 176.013C220.683 147.825 187.984 133.765 158.833 144.611L118.186 159.734C112.955 159.664 108.051 156.566 106.062 151.554C103.452 144.976 106.851 137.593 113.652 135.062L181.778 109.716C197.563 103.843 215.164 104.646 230.294 111.929L244.257 118.65C255.217 123.926 267.968 124.508 279.403 120.254C284.261 118.446 286.689 113.173 284.825 108.474C282.96 103.776 277.511 101.433 272.652 103.241C266.149 105.66 258.898 105.329 252.664 102.329L238.702 95.6078C218.845 86.049 195.744 84.995 175.028 92.7024L50.601 138.996C44.7709 141.165 38.2312 138.353 35.9942 132.715C35.0266 130.277 35.0225 127.709 35.8015 125.404C36.6151 124.039 37.4411 122.682 38.2794 121.334C39.4152 120.153 40.8393 119.198 42.5002 118.58L60.9739 111.707C61.3965 111.549 61.8006 111.366 62.1851 111.159C70.8055 118.046 84.0059 119.581 95.7944 114.818L108.514 109.679C127.454 102.026 138.297 82.6768 131.052 65.8667L120.703 41.8553C120.361 41.0603 119.905 40.3797 119.365 39.8082C158.68 15.0636 205.226 0.748901 255.118 0.748901C391.972 0.748901 503.659 108.459 509.955 243.694ZM510 266.804L419.556 300.454C414.698 302.262 412.271 307.535 414.135 312.234C415.999 316.932 421.449 319.275 426.307 317.467L508.346 286.945C509.156 280.307 509.71 273.59 510 266.804ZM505.502 304.895C457.662 322.474 460.472 336.458 479.664 376.891C491.688 354.673 500.506 330.467 505.502 304.895ZM67.0208 83.476C73.4994 76.4126 80.3711 69.7152 87.6012 63.4184C93.4213 61.609 99.1326 61.4053 103.859 62.4883C109.381 63.7539 113.275 66.6747 114.956 70.5761C116.638 74.4776 116.043 79.2117 113.088 83.9026C110.135 88.5896 104.95 92.9672 98.1411 95.7184C91.332 98.4696 84.4711 98.9592 78.9532 97.6947C73.4308 96.4292 69.5372 93.5083 67.8557 89.6069C67.0443 87.7244 66.7628 85.6479 67.0208 83.476ZM250.917 45.9183C251.663 47.7975 250.692 49.9071 248.748 50.6301C246.805 51.3532 244.625 50.4159 243.88 48.5366C243.134 46.6574 244.105 44.5478 246.048 43.8248C247.992 43.1018 250.171 44.039 250.917 45.9183ZM340.453 98.2883C364.811 100.405 385.758 89.3174 387.239 73.5244C388.721 57.7314 368.686 39.9471 339.651 50.7468C329.593 54.4879 321.223 55.0601 314.739 55.5033C305.345 56.1455 299.908 56.5171 299.032 65.8605C297.551 81.6535 316.096 96.1719 340.453 98.2883ZM194.719 388.987C220.712 379.317 233.321 350.149 222.882 323.84C212.442 297.531 194.388 288.505 168.395 298.175C157.776 307.312 160.151 312.584 163.215 319.388C165.97 325.505 169.283 332.861 164.212 345.378C150.606 378.958 168.727 398.658 194.719 388.987ZM367.417 156.333C371.145 165.729 366.29 176.277 356.573 179.892C346.857 183.507 335.957 178.821 332.229 169.425C328.501 160.028 333.355 149.481 343.072 145.865C352.789 142.25 363.688 146.937 367.417 156.333ZM305.521 153.003C308.437 151.918 309.893 148.754 308.774 145.935C307.656 143.116 304.386 141.71 301.471 142.795C298.556 143.879 297.1 147.043 298.218 149.862C299.336 152.681 302.606 154.087 305.521 153.003ZM302.669 288.297C304.533 292.996 302.106 298.27 297.247 300.077C292.389 301.885 286.939 299.541 285.075 294.843C283.211 290.145 285.638 284.871 290.497 283.064C295.355 281.256 300.805 283.599 302.669 288.297ZM239.767 437.636C246.569 435.105 249.967 427.722 247.357 421.145C244.747 414.567 237.118 411.287 230.316 413.817C223.514 416.348 220.116 423.731 222.726 430.309C225.335 436.886 232.965 440.167 239.767 437.636ZM92.8722 311.683C95.482 318.26 92.0836 325.644 85.2818 328.175C78.48 330.705 70.8504 327.425 68.2406 320.847C65.6308 314.27 69.0291 306.887 75.8309 304.356C82.6328 301.825 90.2624 305.106 92.8722 311.683ZM76.8729 352.781C78.8163 352.057 79.7873 349.948 79.0416 348.069C78.2959 346.189 76.116 345.252 74.1727 345.975C72.2293 346.698 71.2583 348.808 72.004 350.687C72.7496 352.566 74.9295 353.504 76.8729 352.781ZM280.799 312.054C281.544 313.934 280.573 316.043 278.63 316.766C276.687 317.489 274.507 316.552 273.761 314.673C273.015 312.793 273.986 310.684 275.93 309.961C277.873 309.238 280.053 310.175 280.799 312.054ZM278.228 68.9496C281.143 67.865 282.599 64.7007 281.481 61.8818C280.362 59.063 277.092 57.657 274.177 58.7416C271.262 59.8262 269.806 62.9905 270.924 65.8094C272.043 68.6282 275.313 70.0341 278.228 68.9496ZM195.583 246.135C216.718 238.272 226.143 212.474 216.636 188.514C207.129 164.554 182.289 151.504 161.155 159.367C140.021 167.23 130.595 193.028 140.102 216.988C149.609 240.949 174.449 253.998 195.583 246.135Z" fill="#FEFEFE"/>
</svg>
